<svg version="1.2" xmlns="http://www.w3.org/2000/svg" viewBox="0 0 100 100" width="100" height="100"><style>.s0{fill:#000000}</style><path class="s0" d="m0-0.1h2.5h2.6v10.2v10.2h10.4h10.4v-10.2v-10.2h2.8h2.8v19.6v19.5h-2.8h-2.8v-7.2v-7.3h-10.4h-10.4v7.3v7.2h-2.6h-2.5v-19.5z" /><path fill-rule="evenodd" class="s0" d="m56.6 0l3.1 0.1l7.5 19.4c4.1 10.6 7.5 19.3 7.5 19.4c0 0.1-1.3 0.1-2.9 0.1h-2.9l-5.6-14.5h-14l-1.5 4c-0.9 2.3-2.2 5.5-2.9 7.3l-1.3 3.2h-2.7c-1.6 0-2.8-0.1-2.8-0.2c0-0.3 14.9-38.2 15.1-38.6c0.2-0.1 1.6-0.3 3.4-0.2zm-0.1 7.3c-0.2-0.2-1.5 2.7-2.9 6.3l-2.6 6.7h5.2c2.9 0 5.3-0.2 5.3-0.3c0-0.1-1.1-3-2.3-6.4c-1.4-3.3-2.5-6.2-2.7-6.3z" /><path class="s0" d="m81.3-0.1h3.3h3.3l7.7 11.9l7.7 11.8l7.7-11.7l7.7-11.8l3.4-0.1l3.4-0.1v19.6v19.5h-2.8h-2.8v-15.5v-15.6l-6.7 10.3l-6.7 10.3h-3.1h-3l-6.7-10.3l-6.7-10.3v15.6l-0.1 15.5h-2.8h-2.8v-19.5z" /><path class="s0" d="m132.6-0.1h16.6h16.5v2.3v2.3l-13.2 15c-7.3 8.4-13.2 15.2-13.2 15.4c0 0.1 5.9 0.2 13.2 0.2h13.2v1.9v2h-16.5h-16.6v-2.5v-2.4l13-14.9c7.1-8.2 13-15 13-15.2c0-0.1-5.9-0.2-13-0.2h-13v-1.9z" /><path fill-rule="evenodd" class="s0" d="m189.7 0l3.1 0.1l7.2 18.6c3.9 10.2 7.4 18.9 7.6 19.4c0.3 0.9 0.2 0.9-2.6 0.9h-3l-2.8-7.1l-2.8-7.2l-7-0.1c-5.3-0.1-7 0-7.2 0.4c-0.1 0.3-1.4 3.6-2.9 7.2l-2.6 6.8h-2.7c-1.5 0-2.7-0.1-2.7-0.2c0-0.4 14.8-38.2 15-38.5c0.2-0.2 1.7-0.4 3.4-0.3zm-0.1 7.3c-0.2-0.2-1.5 2.6-2.9 6.2l-2.5 6.6l5 0.1c2.8 0 5.2 0 5.3-0.1c0.1-0.1-0.9-2.9-2.2-6.3c-1.3-3.5-2.5-6.4-2.7-6.5z" /><path class="s0" d="m240.9-0.1h2.8h2.8v8.9v8.9l11.6-8.9l11.5-8.9h3.5c1.8 0 3.4 0.2 3.4 0.4c0 0.1-4.5 3.7-9.9 7.8c-5.5 4.2-10 7.8-10 7.9c0 0.2 4.7 5.3 10.5 11.5c5.7 6.1 10.4 11.2 10.4 11.3c0 0.1-1.5 0.2-3.3 0.2h-3.2l-9.3-9.8l-9.2-9.8l-3 2.1l-2.9 2.1l-0.1 7.7v7.7h-2.8h-2.8v-19.5z" /><path class="s0" d="m284.6-0.1h2.5h2.6v10.2v10.2h10.4h10.4v-10.2v-10.2l2.7 0.1l2.7 0.1l0.1 19.5l0.1 19.4h-2.8h-2.8v-7.2v-7.3h-10.4h-10.4v7.3v7.2h-2.6h-2.5v-19.5z" /><path fill-rule="evenodd" class="s0" d="m341-0.1h3l1.5 3.8c0.9 2.1 4.2 10.7 7.5 19.1c3.3 8.4 6.1 15.5 6.2 15.7c0.2 0.4-0.6 0.5-2.8 0.5h-3l-2.8-7.1l-2.8-7.2h-14.1l-2.7 7.2l-2.8 7.1h-2.8c-1.5 0-2.7-0.1-2.7-0.3c0-0.3 14.2-36.7 14.8-37.9c0.4-0.7 0.8-0.9 3.5-0.9zm0 7.3c-0.1-0.1-1.5 2.7-2.9 6.3l-2.5 6.6l5.1 0.1c2.8 0 5.1 0 5.2-0.1c0.1 0-0.9-2.9-2.2-6.3c-1.3-3.4-2.5-6.4-2.7-6.6z" /><path class="s0" d="m365.9-0.1l3.2 0.1l3.1 0.1l12 15.6l12 15.5l0.1-15.6l0.1-15.7h2.8h2.8v19.6v19.5h-3.2h-3.2l-11.9-15.6l-11.9-15.6l-0.2 15.6l-0.1 15.6h-2.8h-2.8v-19.5z" /></svg>